<?xml version="1.0" standalone="no"?>
<svg xmlns="http://www.w3.org/2000/svg" style="isolation:isolate" viewBox="0 0 1558.1 323.2">
  <defs>
    <clipPath id="a">
      <rect width="1558.1" height="323.2"/>
    </clipPath>
  </defs>
  <g clip-path="url(#a)">
    <g fill="rgb(1,1,1)">
      <path d="M1502.7 155.2h-9v-25.6h-8.5v-7.8h26.5v7.8h-9v25.6zM1558 155.2h-8.8l.7-25.6h-.3l-8.3 25.6h-7.7l-8.5-25.6h-.3l.7 25.6h-8.8v-33.4h14.1l6.4 21h.4l6-21h14.5v33.4z"/>
      <g>
        <path d="M458.5 261.5h-38.1v-55.8H371v55.8h-38.2V119.4H371v53.7h49.5v-53.7h38.1v142.1zM519.2 237l-6.8 24.5h-39.6l42.6-142H573l43.3 142h-38.8L570 237h-50.9zm25.6-89.3l-17.5 61.8h35.4l-18-61.8zM630.6 119.4H708c12.9.1 23.2 2.6 30.9 7.3 7.6 4.8 11.5 14.5 11.5 29.1 0 8.3-1.1 15.4-3.4 21.4-2.1 6-8.4 10-18.8 11.7v1c9.7 1 16.2 4 19.5 9.2 3.3 5 5 12.3 5 21.7 0 16-3.2 26.7-9.5 32.3-6.3 5.6-17.8 8.4-34.6 8.4h-78V119.4zm62.4 56.9a7 7 0 0 0 1.8.2h1.4c4.6-.1 8.5-.8 11.6-1.8 3.2-1 4.8-4.5 4.8-10.3 0-5.2-.9-8.7-2.6-10.6-1.8-2-5.2-2.9-10.4-2.9h-30.8v25.4H693zm1.1 53.9c6 .1 11-.4 14.8-1.6 4-1.2 5.9-5.3 5.9-12.3 0-6.6-1.5-10.6-4.6-11.8-3-1.2-7.6-1.8-13.5-1.8h-28v27.5h25.4zM803.4 237l-6.8 24.5H757l42.6-142h57.7l43.3 142h-38.8l-7.5-24.5h-50.9zm25.6-89.3l-17.5 61.8h35.4l-18-61.8zM1052.4 261.5H988l-40-109.3H946l1.7 109.3h-37.3V119.4h64.2l40 108h1.5l-1.5-108h37.7v142.1zM1109.3 176.3h60.5v26.4h-60.5v27.5h66v31.3h-104.1V119.4H1174v31.3h-64.8v25.6zM1193.2 119.4h71.6c18.2.1 31.2 3.2 39 9.3 7.8 6 11.7 18.5 11.7 37.6 0 10.6-1.1 19.2-3.5 25.8-2.3 6.7-10.1 11.4-23.3 14.2v1.3c8.8.6 15.3 3.2 19.5 8a29.5 29.5 0 0 1 6.3 20.1v25.8h-38.8v-19c0-5.6-1.1-10.2-3.3-13.5-2.2-3.3-6.4-5-12.7-5h-28.3v37.5h-38.1V119.4zm68.4 72c7 .2 11.2-1.4 12.7-4.7a35 35 0 0 0 2.2-14c0-7-.7-12.1-2.3-15.4-1.6-3.3-6.4-4.9-14.5-4.9l-28.3-.2v39.2h30.2zM1330.4 183a175.7 175.7 0 0 1 2-25.9c2.6-15.9 9.9-26.2 21.7-30.9 11.8-4.7 24.5-7.2 38.1-7.4H1396.5c24.5 0 41.7 4.1 51.5 12.4 9.8 8.3 14.7 25.4 14.7 51 0 26.3-2.9 46.3-8.6 60-5.8 13.6-24.6 20.4-56.6 20.4a243 243 0 0 1-14.3-.5c-10.7-.4-20.9-2.6-30.4-6.6-9.5-4-16-11.9-19.4-23.8a65 65 0 0 1-2.6-14.7c-.3-5-.4-10-.4-15v-10.6-8.4zm39 7.8v8.5c0 10 1 17.7 3.2 23 2.2 5.3 9.1 7.9 20.9 7.9 13 0 21.3-2.1 24.8-6.3 3.5-4.2 5.2-12.3 5.2-24.4v-5.1l.3-5.3V184v-5.2c0-9.5-1.4-16.4-4.1-20.8-2.7-4.4-9.2-6.6-19.4-6.6-14.8 0-23.5 2-26.3 6-2.8 4-4.3 14.8-4.6 32.7v.9-.2z"/>
      </g>
    </g>
    <linearGradient id="b" x1="-778.4%" y1="50%" x2="704.4%" y2="50%">
      <stop offset="0%" style="stop-color:rgb(238,52,77)"/>
      <stop offset="100%" style="stop-color:rgb(248,153,39)"/>
    </linearGradient>
    <path d="M120.8 42.7c4 0 7.2-3.2 7.2-7.1V15a7.1 7.1 0 1 0-14.3 0v20.6c0 4 3.2 7.1 7.1 7.1z" fill-rule="evenodd" fill="url(#b)"/>
    <linearGradient id="c" x1="-524.5%" y1="50%" x2="945.4%" y2="50%">
      <stop offset="0%" style="stop-color:rgb(238,52,77)"/>
      <stop offset="100%" style="stop-color:rgb(248,153,39)"/>
    </linearGradient>
    <path d="M92.4 61.6c4 0 7.1-3.2 7.1-7.1V33.9a7.1 7.1 0 1 0-14.2 0v20.6c0 3.9 3.2 7 7.1 7z" fill-rule="evenodd" fill="url(#c)"/>
    <linearGradient id="d" x1="-557.4%" y1="50%" x2="917.6%" y2="50%">
      <stop offset="0%" style="stop-color:rgb(238,52,77)"/>
      <stop offset="100%" style="stop-color:rgb(248,153,39)"/>
    </linearGradient>
    <path d="M92.4 14c4 0 7.1-3.1 7.1-7V7a7.1 7.1 0 1 0-14.2 0V7c0 3.9 3.2 7 7.1 7z" fill-rule="evenodd" fill="url(#d)"/>
    <linearGradient id="e" x1="-965%" y1="50%" x2="496.5%" y2="50%">
      <stop offset="0%" style="stop-color:rgb(238,52,77)"/>
      <stop offset="100%" style="stop-color:rgb(248,153,39)"/>
    </linearGradient>
    <path d="M149.3 67c3.9 0 7-3.2 7-7.1v.2a7.1 7.1 0 1 0-14.2 0v-.2c0 4 3.2 7.1 7.2 7.1z" fill-rule="evenodd" fill="url(#e)"/>
    <linearGradient id="f" x1="0%" y1="50%" y2="50%">
      <stop offset="0%" style="stop-color:rgb(238,52,77)"/>
      <stop offset="100%" style="stop-color:rgb(248,153,39)"/>
    </linearGradient>
    <path d="M206 119.7c-3.8 0-7 3.1-7 7v3.6a7.1 7.1 0 0 1-14.2-.4v-17.7a7.1 7.1 0 1 0-14.3 0v.3a7.1 7.1 0 1 1-14.1 0V82.8a7.1 7.1 0 1 0-14.2 0v11.4c0 4-3.6 7-7.1 7-4 0-7.1-3-7.1-7v-32a7.1 7.1 0 1 0-14.3 0V90a7.1 7.1 0 1 1-14.2 0V80a7.1 7.1 0 1 0-14.2 0v21.4a7.1 7.1 0 1 1-14.2 0V71.7a7.1 7.1 0 1 0-14.2 0v45.5a7.1 7.1 0 1 1-14.2 0v-12a7.1 7.1 0 1 0-14.2 0v33.4a7.1 7.1 0 1 1-14.2 0v-11a7.1 7.1 0 1 0-14.2 0l-.1 11v123l106.6 61.6L213 261.6v-77.8-57c0-4-3.1-7.1-7-7.1zm-49.2 120.6h-33.5V215H89.8v25.4H56.4v-79.7h33.4v26.8h33.5v-26.8h33.5v79.8z" fill-rule="evenodd" fill="url(#f)"/>
  </g>
</svg>
